<?xml version="1.0" encoding="UTF-8" standalone="no"?>
<!DOCTYPE svg PUBLIC "-//W3C//DTD SVG 1.1//EN" "http://www.w3.org/Graphics/SVG/1.1/DTD/svg11.dtd">
<svg width="100%" height="100%" viewBox="0 0 1080 1080" version="1.1" xmlns="http://www.w3.org/2000/svg" xmlns:xlink="http://www.w3.org/1999/xlink" xml:space="preserve" xmlns:serif="http://www.serif.com/" style="fill-rule:evenodd;clip-rule:evenodd;stroke-linejoin:round;stroke-miterlimit:2;">
    <g transform="matrix(1.45762,0,0,1.55306,-50.6909,-342.137)">
        <path d="M717,400C689.183,439.2 666.6,500.983 666.6,568C666.6,635.017 689.183,696.8 717,736C624.278,736 549,660.722 549,568C549,475.278 624.278,400 717,400Z" style="fill:rgb(32,32,32);"/>
    </g>
    <g transform="matrix(1.26234,0.728811,-0.776531,1.34499,469.517,-519.298)">
        <path d="M717,400C689.183,439.2 666.6,500.983 666.6,568C666.6,635.017 689.183,696.8 717,736C624.278,736 549,660.722 549,568C549,475.278 624.278,400 717,400Z" style="fill:rgb(32,32,32);"/>
    </g>
    <g transform="matrix(0.728811,-1.26234,1.34499,0.776531,-519.298,610.486)">
        <path d="M717,400C689.183,439.2 666.6,500.983 666.6,568C666.6,635.017 689.183,696.8 717,736C624.278,736 549,660.722 549,568C549,475.278 624.278,400 717,400Z" style="fill:rgb(32,32,32);"/>
    </g>
    <g transform="matrix(1.26234,-0.728811,0.776531,1.34499,-412.622,71.3926)">
        <path d="M717,400C689.183,439.2 666.6,500.983 666.6,568C666.6,635.017 689.183,696.8 717,736C624.278,736 549,660.722 549,568C549,475.278 624.278,400 717,400Z" style="fill:rgb(32,32,32);"/>
    </g>
    <g transform="matrix(-0.728811,-1.26234,1.34499,-0.776531,71.3926,1492.62)">
        <path d="M717,400C689.183,439.2 666.6,500.983 666.6,568C666.6,635.017 689.183,696.8 717,736C624.278,736 549,660.722 549,568C549,475.278 624.278,400 717,400Z" style="fill:rgb(32,32,32);"/>
    </g>
    <g transform="matrix(1.73542e-16,-1.45762,1.55306,4.26818e-16,-342.138,1130.69)">
        <path d="M717,400C689.183,439.2 666.6,500.983 666.6,568C666.6,635.017 689.183,696.8 717,736C624.278,736 549,660.722 549,568C549,475.278 624.278,400 717,400Z" style="fill:rgb(32,32,32);"/>
    </g>
    <g transform="matrix(-1.45762,-3.75224e-16,6.75403e-16,-1.55306,1130.69,1422.13)">
        <path d="M717,400C689.183,439.2 666.6,500.983 666.6,568C666.6,635.017 689.183,696.8 717,736C624.278,736 549,660.722 549,568C549,475.278 624.278,400 717,400Z" style="fill:rgb(32,32,32);"/>
    </g>
    <g transform="matrix(-1.26234,-0.728811,0.776531,-1.34499,610.486,1599.3)">
        <path d="M717,400C689.183,439.2 666.6,500.983 666.6,568C666.6,635.017 689.183,696.8 717,736C624.278,736 549,660.722 549,568C549,475.278 624.278,400 717,400Z" style="fill:rgb(32,32,32);"/>
    </g>
    <g transform="matrix(-0.728811,1.26234,-1.34499,-0.776531,1599.3,469.517)">
        <path d="M717,400C689.183,439.2 666.6,500.983 666.6,568C666.6,635.017 689.183,696.8 717,736C624.278,736 549,660.722 549,568C549,475.278 624.278,400 717,400Z" style="fill:rgb(32,32,32);"/>
    </g>
    <g transform="matrix(-1.26234,0.728811,-0.776531,-1.34499,1492.62,1008.61)">
        <path d="M717,400C689.183,439.2 666.6,500.983 666.6,568C666.6,635.017 689.183,696.8 717,736C624.278,736 549,660.722 549,568C549,475.278 624.278,400 717,400Z" style="fill:rgb(32,32,32);"/>
    </g>
    <g transform="matrix(0.728811,1.26234,-1.34499,0.776531,1008.61,-412.622)">
        <path d="M717,400C689.183,439.2 666.6,500.983 666.6,568C666.6,635.017 689.183,696.8 717,736C624.278,736 549,660.722 549,568C549,475.278 624.278,400 717,400Z" style="fill:rgb(32,32,32);"/>
    </g>
    <g transform="matrix(-5.58146e-16,1.45762,-1.55306,-8.72396e-16,1422.13,-50.6909)">
        <path d="M717,400C689.183,439.2 666.6,500.983 666.6,568C666.6,635.017 689.183,696.8 717,736C624.278,736 549,660.722 549,568C549,475.278 624.278,400 717,400Z" style="fill:rgb(32,32,32);"/>
    </g>
    <g transform="matrix(1.46075,0,0,1.46075,-219.425,-333.364)">
        <circle cx="519.885" cy="597.885" r="204.885" style="fill:rgb(32,32,32);"/>
    </g>
</svg>
