<?xml version="1.0" encoding="UTF-8" standalone="no"?>
<!DOCTYPE svg PUBLIC "-//W3C//DTD SVG 1.1//EN" "http://www.w3.org/Graphics/SVG/1.1/DTD/svg11.dtd">
<svg width="100%" height="100%" viewBox="0 0 1080 1080" version="1.1" xmlns="http://www.w3.org/2000/svg" xmlns:xlink="http://www.w3.org/1999/xlink" xml:space="preserve" xmlns:serif="http://www.serif.com/" style="fill-rule:evenodd;clip-rule:evenodd;stroke-linejoin:round;stroke-miterlimit:2;">
    <g transform="matrix(1.33963,0,0,1.33963,-239.663,-190.096)">
        <path d="M913.906,174C924.275,174 934.218,178.119 941.55,185.45C948.881,192.782 953,202.725 953,213.094L953,876.906C953,887.275 948.881,897.218 941.55,904.55C934.218,911.881 924.275,916 913.906,916L250.094,916C239.725,916 229.782,911.881 222.45,904.55C215.119,897.218 211,887.275 211,876.906L211,213.094C211,202.725 215.119,192.782 222.45,185.45C229.782,178.119 239.725,174 250.094,174L913.906,174Z" style="fill:rgb(8,10,14);"/>
    </g>
    <g transform="matrix(1.92552e-16,-3.14462,2.55822,1.56645e-16,-157.114,2134.62)">
        <g>
            <g>
                <g>
                    <clipPath id="_clip1">
                        <rect x="359" y="135" width="306.142" height="275"/>
                    </clipPath>
                    <g clip-path="url(#_clip1)">
                        <path d="M502.86,320.625C499.348,320.625 496.5,324.125 496.5,328.443L496.5,393.562C496.5,396.579 495.088,399.326 492.872,400.622C490.655,401.918 488.03,401.53 486.126,399.626C458.989,372.489 386.519,300.019 365.065,278.565C363.58,277.08 362.718,274.853 362.718,272.5C362.718,270.147 363.58,267.92 365.065,266.435C386.519,244.981 458.989,172.511 486.126,145.374C488.03,143.47 490.655,143.082 492.872,144.378C495.088,145.674 496.5,148.421 496.5,151.438L496.5,216.557C496.5,220.875 499.348,224.375 502.86,224.375L1321.5,224.375L1321.5,135L1459,272.5L1321.5,410L1321.5,320.625L502.86,320.625Z" style="fill:white;"/>
                    </g>
                </g>
            </g>
        </g>
    </g>
</svg>
